HIERARCHY
ROOT Hips
{
  OFFSET -3.68211 100.295 -41.072
  CHANNELS 6 Xposition Yposition Zposition Zrotation Xrotation Yrotation
  JOINT RightUpLeg
  {
    OFFSET -8.9458 -8.66707 0.101652
    CHANNELS 3 Zrotation Xrotation Yrotation
    JOINT RightLeg
    {
      OFFSET 0 -44.4227 1.3727
      CHANNELS 3 Zrotation Xrotation Yrotation
      JOINT RightFoot
      {
        OFFSET 0.253549 -42.0924 -1.46059
        CHANNELS 3 Zrotation Xrotation Yrotation
        JOINT RightToes
        {
          OFFSET 0.04 -4.41509 8.4991
          CHANNELS 3 Zrotation Xrotation Yrotation
          End Site
          {
            OFFSET -0.08 -0.137448 9.77979
          }
        }
      }
    }
  }
  JOINT Spine
  {
    OFFSET 0 11.8905 0
    CHANNELS 3 Zrotation Xrotation Yrotation
    JOINT Spine1
    {
      OFFSET 0 25.6574 0.127663
      CHANNELS 3 Zrotation Xrotation Yrotation
      JOINT HEad
      {
        OFFSET 0 8.73416 0.011341
        CHANNELS 3 Zrotation Xrotation Yrotation
        End Site
        {
          OFFSET -0.29 12.7742 2.51395
        }
      }
      JOINT LeftShoulder1
      {
        OFFSET 8.99 -0.362252 -0.22
        CHANNELS 3 Zrotation Xrotation Yrotation
        JOINT LeftArm
        {
          OFFSET 10.2827 -0.00338 0.322123
          CHANNELS 3 Zrotation Xrotation Yrotation
          JOINT LeftForeArm
          {
            OFFSET 32.7669 0.099144 -1.42434
            CHANNELS 3 Zrotation Xrotation Yrotation
            JOINT LeftHand
            {
              OFFSET 27.5643 0.085362 1.02216
              CHANNELS 3 Zrotation Xrotation Yrotation
              End Site
              {
                OFFSET 16.7443 -0.6 1.50291
              }
            }
          }
        }
      }
      JOINT RightShoulder
      {
        OFFSET -8.99 -0.362252 -0.22
        CHANNELS 3 Zrotation Xrotation Yrotation
        JOINT RightArm
        {
          OFFSET -10.2827 -0.00338 0.322123
          CHANNELS 3 Zrotation Xrotation Yrotation
          JOINT RightForeArm
          {
            OFFSET -32.8971 0.099144 -1.42434
            CHANNELS 3 Zrotation Xrotation Yrotation
            JOINT RightHand
            {
              OFFSET -27.4921 0.085362 1.02216
              CHANNELS 3 Zrotation Xrotation Yrotation
              End Site
              {
                OFFSET -16.6312 -0.6 1.50291
              }
            }
          }
        }
      }
    }
  }
  JOINT LeftUpLeg
  {
    OFFSET 8.9458 -8.66707 0.101652
    CHANNELS 3 Zrotation Xrotation Yrotation
    JOINT LeftLeg
    {
      OFFSET 0 -44.4227 1.3727
      CHANNELS 3 Zrotation Xrotation Yrotation
      JOINT LeftFoot
      {
        OFFSET -0.253549 -42.0924 -1.46059
        CHANNELS 3 Zrotation Xrotation Yrotation
        JOINT LeftToes
        {
          OFFSET -0.04 -4.41509 8.4991
          CHANNELS 3 Zrotation Xrotation Yrotation
          End Site
          {
            OFFSET 0.08 -0.047448 9.77979
          }
        }
      }
    }
  }
}
MOTION
Frames:	16
Frame Time:	0.0166667
20.4879 93.8557 -36.0929 44.1045 50.0929 171.172 -11.9388 -22.9549 5.15928 53.3165 12.1653 -31.1144 -15.2488 32.3925 -25.9099 0.0462049 0.000533403 0.662642 22.7998 54.9968 -15.4107 -0.0180765 -0.00457966 -0.00339289 25.4218 20.3237 -21.8004 -1.68967e-015 0 -3.97569e-016 -78.6427 -6.34261 -52.1819 -45.8684 30.8787 -70.6545 14.0856 18.3497 -13.1577 43.1058 1.1631 -6.89057 72.4424 -48.6428 72.2386 8.58069 10.8072 57.0535 15.5739 21.273 6.3504 51.1316 2.41391 -35.2861 -45.431 25.8003 95.7951 12.1263 0.835681 -3.32575 6.8387e-009 1.56003e-007 -4.85536e-009 
19.1513 93.8396 -35.8734 42.9415 49.1243 171.784 -10.481 -22.5035 0.54313 53.0419 20.0131 -34.2913 -15.6069 31.895 -19.77 0.0462049 0.000533403 0.662642 22.5425 54.1832 -15.6237 -0.0149787 0.00292043 -0.0044682 27.3043 22.5234 -22.6738 5.71506e-015 0 7.95139e-016 -78.657 -5.54829 -52.8886 -45.0393 30.4865 -70.8491 13.9203 18.4573 -13.1821 42.2427 1.45733 -7.13482 73.2142 -48.7006 72.7369 9.45256 12.1953 58.4152 15.5839 21.2412 6.04392 49.5007 1.62078 -35.6426 -46.7949 25.6056 98.5379 10.6347 0.208747 -3.43922 6.8387e-009 1.56003e-007 -4.85535e-009 
17.8383 93.9443 -35.7618 41.8044 48.0772 172.547 -8.25157 -22.6383 -4.39075 50.8104 28.0725 -36.509 -16.0416 31.51 -14.4174 0.0462049 0.000533403 0.662642 21.9708 52.7337 -15.5461 -0.0113793 0.0104805 -0.00612377 29.1424 24.672 -23.9004 3.926e-015 0 7.95139e-016 -78.4404 -4.62706 -53.3054 -44.3583 30.0702 -70.8951 13.7326 18.5693 -13.0715 41.5998 2.06636 -7.81642 73.9706 -48.7544 73.3913 10.3701 13.7543 59.7398 15.5268 21.1358 5.75462 47.9447 0.938914 -35.9287 -47.711 25.2511 100.682 9.12432 -0.381876 -3.5164 6.8387e-009 1.56003e-007 -4.85536e-009 
16.53 94.0008 -35.6992 39.4652 45.1175 174.456 -5.21757 -23.5049 -10.1729 42.7897 35.0695 -33.4091 -14.814 31.5507 -10.2538 0.0462049 0.000533403 0.662642 19.9712 48.9186 -14.5179 -0.0080057 0.0178607 -0.00808099 30.8651 26.6914 -25.3842 5.46658e-016 -7.95139e-016 1.59028e-015 -78.1011 -3.78639 -53.4327 -43.9254 29.7911 -70.7406 13.6425 18.7115 -12.9049 41.1423 2.9695 -8.85478 74.7622 -48.7431 74.2225 11.3078 15.4621 61.0127 15.3313 20.905 5.37368 45.7231 -1.13088 -34.8127 -48.1441 24.7837 102.214 7.70526 -0.899048 -3.52947 6.8387e-009 1.56003e-007 -4.85536e-009 
15.2649 93.916 -35.7709 37.5358 42.3228 175.944 -1.66928 -24.2985 -16.2546 33.2368 41.4184 -28.1961 -14.6051 31.8609 -6.56312 0.0462049 0.000533403 0.662642 18.2711 44.9916 -13.6616 -0.0049547 0.0248809 -0.0100963 32.3638 28.539 -27.0094 6.4605e-016 0 -7.95139e-016 -77.7532 -3.23392 -53.2735 -43.8244 29.8006 -70.3396 13.6755 18.8725 -12.7274 40.7896 4.14359 -10.1575 75.6499 -48.6088 75.2286 12.2394 17.2954 62.226 14.9823 20.5844 5.03582 43.6654 -2.98809 -33.7587 -48.3144 24.3172 103.262 6.29729 -1.38698 -3.51464 6.8387e-009 1.56003e-007 -4.85535e-009 
14.0301 93.7725 -35.9039 35.8215 39.547 177.176 1.9349 -25.4746 -22.331 22.2125 46.7503 -21.29 -14.9406 31.5812 -3.29579 0.0462049 0.000533403 0.662642 17.1564 41.2613 -13.3325 0.0117642 0.0378311 -0.0119264 33.434 30.1203 -28.4086 6.95746e-016 0 -1.59028e-015 -77.6442 -3.04458 -53.2674 -43.8977 29.9432 -69.9009 13.7622 19.0266 -12.5484 40.2117 5.25374 -11.3452 76.5822 -48.3202 76.2731 13.1613 19.1778 63.4857 14.5881 20.2319 4.67851 41.6237 -4.81608 -32.7563 -48.2172 23.8281 104.049 4.95457 -1.79669 -3.46016 6.8387e-009 1.56003e-007 -4.85536e-009 
12.8204 93.7011 -36.0786 34.3323 36.7928 178.157 5.37341 -27.3617 -28.095 9.6999 51.4244 -13.1407 -15.2338 30.5711 -0.605344 0.0462049 0.000533403 0.662642 16.5361 37.8564 -13.3913 0.0133154 0.0367612 -0.0133275 34.0763 31.3784 -29.4742 9.93923e-016 3.97569e-016 -7.95139e-016 -77.6453 -3.35215 -53.5255 -43.8365 31.4032 -68.7323 15.1726 18.2196 -13.0688 39.4477 6.23479 -12.2572 77.5839 -47.9156 77.3692 14.0496 21.1038 64.7395 14.1251 19.7971 4.32804 39.6488 -6.61392 -31.8109 -47.902 23.3124 104.576 3.67255 -2.13795 -3.36821 6.8387e-009 1.56003e-007 -4.85536e-009 
11.6173 93.817 -36.2755 33.1394 33.539 178.554 9.00886 -30.4165 -33.045 -5.34385 55.222 -3.00974 -14.832 28.8373 1.32552 0.0462049 0.000533403 0.662642 16.095 34.3396 -13.1933 0.0125557 0.0375314 -0.0137668 34.2745 32.3577 -30.1608 5.49143e-015 1.98785e-016 7.95139e-016 -77.7076 -4.22645 -53.882 -43.788 34.0595 -66.9384 17.6795 16.5392 -14.2122 38.512 7.09366 -12.8622 78.6468 -47.3803 78.4952 14.882 23.0747 65.9886 13.5821 19.2809 4.01366 37.9077 -8.58407 -30.3555 -47.414 22.8264 104.245 2.41093 -2.4389 -3.22956 6.8387e-009 1.56003e-007 -4.85536e-009 
10.5371 93.9474 -36.4479 31.5172 30.0702 178.737 13.2309 -31.9321 -36.9211 -20.5225 52.7928 6.88157 -14.8463 26.5573 3.10007 0.0462049 0.000533403 0.662642 15.198 31.0664 -12.6074 0.00140443 0.0389803 -0.00417645 33.7743 33.2645 -30.0227 -1.36664e-015 1.98785e-016 -0 -77.9895 -6.95972 -54.622 -43.6309 37.0332 -65.4031 21.9507 18.9781 -14.4668 35.1684 10.8852 -11.6708 84.9949 -46.9682 82.1058 15.7949 25.6339 67.7512 15.9859 16.0306 5.78967 35.9278 -10.4288 -28.9486 -46.3699 22.2355 103.115 1.0209 -2.498 -2.98993 6.8387e-009 1.56003e-007 -4.85535e-009 
9.51265 94.1131 -36.6597 29.4768 26.4277 178.646 17.567 -32.7344 -39.5193 -31.5708 47.7555 11.6033 -13.751 23.5078 4.20102 0.0462049 0.000533403 0.662642 13.8621 28.0324 -11.6689 -0.00146539 0.0396604 -0.00458631 32.5558 34.1289 -29.0551 -3.18055e-015 0 7.95139e-016 -78.6089 -11.3285 -55.7165 -43.3187 40.3371 -64.2598 26.4451 23.0565 -14.0127 31.9837 13.6741 -10.3864 89.7881 -44.8271 83.8961 16.7204 28.6952 69.8224 19.2572 11.995 8.83875 33.7372 -12.1966 -27.59 -45.0506 21.463 101.389 -0.480415 -2.37415 -2.68638 6.8387e-009 1.56003e-007 -4.85536e-009 
8.5277 94.301 -36.8733 27.0461 22.668 178.216 21.9522 -33.0536 -40.7581 -39.2438 42.0198 12.0907 -11.8727 19.7597 4.84056 0.0462049 0.000533403 0.662642 12.1292 25.2352 -10.4265 -0.00134699 0.0383205 -0.00568604 30.6185 34.921 -27.2697 2.78299e-015 0 -0 -79.7232 -17.0938 -57.2092 -42.7661 43.9586 -63.6514 30.192 27.7459 -13.0348 28.8415 15.5678 -9.05792 93.219 -41.312 84.1318 17.6678 32.1317 71.9031 22.5731 8.21137 12.6918 31.3296 -13.9245 -26.2801 -43.6301 20.4478 99.2232 -2.05613 -2.10413 -2.34124 6.8387e-009 1.56003e-007 -4.85535e-009 
7.60435 94.5567 -37.0675 23.2951 18.6226 176.87 25.6755 -31.7647 -39.0338 -40.9247 36.5315 8.14749 -13.9886 15.2774 5.7368 0.0462049 0.000533403 0.662642 9.02135 23.3874 -8.21655 -5.60121e-005 0.108792 -0.0192704 26.19 35.1503 -22.7132 3.08116e-015 0 1.59028e-015 -83.1802 -26.6628 -60.6991 -41.1288 48.2888 -64.2729 30.3016 32.681 -11.4965 26.0582 14.7479 -7.32469 93.7066 -34.7698 80.8862 19.1062 35.9102 73.6714 24.6746 6.40561 17.6707 28.4864 -15.3422 -24.7473 -42.2891 19.2727 95.8533 -4.42803 -1.84197 -2 6.8387e-009 1.56003e-007 -4.85535e-009 
6.75822 94.9786 -37.1677 18.5034 14.6226 174.534 27.3256 -29.4957 -35.5135 -40.1688 31.8302 3.7016 -14.2727 11.1044 5.4264 0.0462049 0.000533403 0.662642 4.72606 22.3185 -5.32877 0.000226073 0.101482 -0.0233306 19.7052 34.596 -16.009 1.19271e-015 -2.38542e-015 -0 -90.0685 -38.0371 -66.9171 -38.5628 53.2523 -66.1202 22.8239 16.1654 -9.87586 23.2832 13.0054 -5.37563 94.2004 -26.4491 77.2851 21.0732 39.5369 74.7108 26.3064 8.43545 20.2359 25.5287 -16.1361 -23.0085 -40.9259 17.2374 91.0366 -7.5578 -1.62352 -1.66699 6.83871e-009 1.56003e-007 -4.85536e-009 
5.98517 95.5471 -37.1718 12.8889 11.041 171.194 26.8294 -26.967 -30.7605 -38.2102 28.4058 0.00442928 -15.1158 7.24455 4.55308 0.0462049 0.000533403 0.662642 -0.676115 21.8694 -1.99593 -0.00216369 0.0921425 -0.0267314 11.6622 32.7267 -7.8116 -4.41391e-032 1.59028e-015 1.59028e-015 -102.9 -49.3371 -78.4193 -34.943 58.4828 -69.3739 22.9263 30.7624 -9.1227 20.7992 10.4396 -3.16347 95.0087 -17.3559 73.8187 23.7446 42.9042 74.9307 16.5378 18.4979 8.0564 22.4768 -16.2003 -21.0458 -39.5313 14.1175 85.0761 -11.3108 -1.57646 -1.38845 6.8387e-009 1.56003e-007 -4.85536e-009 
5.24866 96.2293 -37.0775 8.28598 8.41011 167.998 25.2071 -24.7583 -26.5916 -35.5553 26.5044 -2.88581 -15.6989 3.94006 3.19024 0.0462049 0.000533403 0.662642 -5.17732 21.3161 0.628381 -0.0158058 -0.0134399 -0.000550857 3.17177 30.3825 0.42899 7.95139e-016 1.59028e-015 -0 -123.669 -57.9697 -97.1945 -41.3842 65.0815 -66.1397 21.1629 13.2832 -8.73495 19.1637 8.32464 -1.40081 95.6434 -11.5576 71.7059 25.1655 44.5738 75.2471 18.2419 20.3556 8.17613 19.5757 -16.0989 -19.8235 -37.2232 11.3331 78.3356 -15.8233 -1.67934 -1.22821 6.83871e-009 1.56003e-007 -4.85535e-009 
4.49139 96.9807 -36.938 4.68798 6.52919 165.081 22.7812 -23.1932 -22.8625 -32.334 26.1459 -5.15268 -16.5861 0.999849 1.60602 0.0462049 0.000533403 0.662642 -8.807 20.7705 2.68298 -0.0185558 -0.01816 -0.000191226 -3.9532 27.5493 7.17184 1.59028e-015 -6.36111e-015 3.18055e-015 -152.951 -60.7393 -124.449 -61.5197 71.1242 -50.5057 17.8622 18.4021 -8.8293 18.2041 6.52316 0.0194671 96.0886 -7.70105 70.3424 25.4623 45.4725 75.8061 14.8381 25.2316 2.92634 16.6858 -15.8622 -19.2548 -34.1901 8.4982 71.5502 -20.2593 -1.76489 -1.14088 6.8387e-009 1.56003e-007 -4.85536e-009 
